<?xml version="1.0" standalone="no"?>
<!DOCTYPE svg PUBLIC "-//W3C//DTD SVG 20010904//EN"
 "http://www.w3.org/TR/2001/REC-SVG-20010904/DTD/svg10.dtd">
<svg version="1.0" xmlns="http://www.w3.org/2000/svg"
 width="1000.000000pt" height="1000.000000pt" viewBox="0 0 1000.000000 1000.000000"
 preserveAspectRatio="xMidYMid meet">
<metadata>
Created by potrace 1.11, written by Peter Selinger 2001-2013
</metadata>
<g transform="translate(0.000000,1000.000000) scale(0.100000,-0.100000)"
fill="#000000" stroke="none">
<path d="M4710 9844 c-832 -59 -1613 -314 -2304 -753 -317 -201 -586 -421
-871 -712 -375 -382 -657 -779 -890 -1254 -252 -512 -402 -1031 -472 -1630
-25 -213 -25 -777 0 -990 107 -918 423 -1712 963 -2426 109 -144 222 -278 312
-371 l55 -57 114 109 c549 524 1236 915 1968 1120 83 23 156 44 164 46 8 3
-26 27 -75 56 -115 65 -271 172 -358 243 -77 65 -77 67 14 104 114 47 119 51
161 121 33 56 41 80 46 136 5 64 2 78 -42 199 -26 72 -67 180 -90 240 -24 61
-57 146 -74 190 -46 121 -117 184 -224 199 -50 8 -86 0 -167 -37 -73 -33 -182
-77 -190 -77 -4 0 -36 57 -72 127 -131 259 -208 515 -234 783 -3 36 -8 76 -11
90 -2 14 -7 139 -10 278 l-6 252 29 0 c93 2 324 27 356 39 51 20 127 92 154
147 31 63 34 117 15 279 -6 55 -18 165 -27 245 -24 231 -36 277 -89 334 l-24
26 78 98 c471 585 1187 952 1931 990 782 40 1506 -235 2051 -780 430 -430 706
-1005 769 -1603 15 -141 15 -439 0 -580 -69 -646 -392 -1277 -874 -1703 -163
-145 -266 -220 -449 -328 -48 -29 -84 -54 -80 -57 4 -3 55 -17 113 -32 289
-74 580 -185 905 -345 436 -216 777 -452 1132 -786 l121 -114 81 87 c1100
1204 1518 2894 1106 4471 -91 346 -219 678 -384 998 -71 137 -210 376 -231
398 -5 5 -48 -7 -100 -28 -149 -61 -280 -87 -466 -93 -209 -7 -352 15 -535 83
l-65 24 -355 -191 c-195 -105 -358 -194 -363 -197 -5 -3 2 13 15 34 13 22 98
162 188 311 l163 272 -67 73 c-125 135 -211 290 -256 463 -21 78 -24 112 -23
255 0 136 4 179 22 242 27 97 73 210 117 283 19 32 35 60 35 64 0 10 -248 142
-377 200 -477 216 -955 349 -1479 411 -137 17 -251 22 -484 25 -168 1 -330 1
-360 -1z"/>
<path d="M8750 9226 l-345 -51 -3 -262 -2 -263 360 0 360 0 0 315 c0 246 -3
315 -12 314 -7 -1 -168 -24 -358 -53z"/>
<path d="M8070 9129 c-146 -21 -266 -38 -267 -38 -2 -1 -3 -103 -3 -227 l0
-227 265 5 c145 2 267 7 270 10 3 3 4 119 3 259 l-3 254 -265 -36z"/>
<path d="M7800 8365 l0 -224 33 -6 c64 -11 468 -65 487 -65 19 0 20 9 20 260
l0 260 -270 0 -270 0 0 -225z"/>
<path d="M8404 8323 c4 -142 9 -260 12 -262 4 -5 663 -100 692 -101 9 0 12 69
12 310 l0 310 -362 0 -361 0 7 -257z"/>
<path d="M3935 6706 c-223 -51 -406 -218 -482 -439 -25 -73 -28 -96 -28 -207
0 -111 3 -134 28 -207 68 -199 221 -351 419 -419 74 -26 97 -29 208 -29 111 0
134 3 208 29 197 67 347 217 420 418 24 65 26 87 26 208 0 121 -2 143 -26 208
-38 106 -83 177 -163 257 -130 129 -259 185 -440 191 -70 2 -132 -1 -170 -10z
m327 -120 c91 -32 155 -75 227 -151 52 -57 121 -172 121 -204 0 -6 -17 7 -37
30 -111 122 -297 126 -410 7 -135 -140 -86 -385 94 -464 50 -22 165 -22 215 0
45 19 104 70 131 111 l19 30 -6 -33 c-21 -120 -159 -289 -286 -350 -223 -109
-465 -69 -641 107 -108 108 -169 248 -169 391 0 128 59 275 147 371 92 99 195
157 316 179 77 13 201 3 279 -24z"/>
<path d="M5672 6705 c-134 -30 -280 -123 -367 -233 -104 -130 -150 -277 -142
-447 8 -172 67 -305 192 -430 80 -80 151 -125 257 -163 65 -24 87 -26 208 -26
121 0 143 2 208 26 106 38 177 83 257 163 80 80 125 151 163 257 24 65 26 87
26 208 0 121 -2 143 -26 208 -38 106 -83 177 -163 257 -130 129 -259 185 -440
191 -72 2 -132 -1 -173 -11z m260 -100 c112 -23 193 -68 279 -154 225 -225
225 -557 0 -782 -225 -225 -557 -225 -782 0 -51 52 -86 97 -107 141 -32 65
-57 158 -31 115 24 -41 76 -88 124 -113 102 -53 238 -28 322 60 76 79 99 212
54 313 -83 186 -324 228 -461 79 -48 -52 -50 -43 -8 45 43 91 158 206 251 250
121 58 236 73 359 46z"/>
<path d="M4196 4772 c-14 -24 -38 -306 -33 -392 19 -301 170 -472 507 -573
163 -49 260 -62 445 -61 182 1 276 19 387 75 83 42 173 134 216 222 71 145
108 390 103 695 l-1 42 -809 0 c-446 0 -812 -4 -815 -8z m1524 -175 c0 -117
-26 -321 -51 -402 -30 -100 -76 -180 -128 -227 -102 -90 -214 -122 -431 -122
-163 -1 -251 10 -385 49 -354 102 -478 259 -461 585 3 63 9 134 12 158 l7 42
718 0 719 0 0 -83z"/>
</g>
</svg>
